<?xml version="1.0" encoding="iso-8859-1"?>
<!-- Generator: Adobe Illustrator 19.0.0, SVG Export Plug-In . SVG Version: 6.00 Build 0)  -->
<svg xmlns="http://www.w3.org/2000/svg" xmlns:xlink="http://www.w3.org/1999/xlink" version="1.1" id="Capa_1" x="0px" y="0px" viewBox="0 0 512 512" style="enable-background:new 0 0 512 512;" xml:space="preserve">
<path style="fill:#2389A2;" d="M504.5,321.817H7.5V184.434c0-10.579,8.576-19.155,19.155-19.155h458.69  c10.579,0,19.155,8.576,19.155,19.155V321.817z"/>
<rect x="7.5" y="285" style="fill:#207A89;" width="497" height="36.815"/>
<rect x="21.576" y="321.82" style="fill:#CBCFD1;" width="467.76" height="24.904"/>
<rect x="21.576" y="321.82" style="fill:#9DA5A8;" width="467.76" height="12.452"/>
<rect x="124.44" y="199.91" style="fill:#1E5D68;" width="244.71" height="44.999"/>
<path style="fill:#E5B045;" d="M97.716,274.446c0,12.952-10.502,23.454-23.466,23.454c-12.952,0-23.454-10.502-23.454-23.454  c0-3.44,0.736-6.711,2.076-9.657c3.682-8.148,11.866-13.809,21.378-13.809c9.524,0,17.708,5.661,21.378,13.809  C96.968,267.734,97.716,271.006,97.716,274.446z"/>
<path style="fill:#F5C350;" d="M95.628,264.789c-3.67,8.136-11.854,13.797-21.378,13.797c-9.512,0-17.696-5.661-21.378-13.797  c3.682-8.148,11.866-13.809,21.378-13.809C83.774,250.98,91.959,256.641,95.628,264.789z"/>
<path style="fill:#9DA5A8;" d="M467.685,237.188c0,20.575-16.682,37.257-37.276,37.257c-20.575,0-37.257-16.682-37.257-37.257  c0-5.465,1.17-10.661,3.298-15.34c5.848-12.943,18.849-21.936,33.959-21.936c15.129,0,28.13,8.993,33.959,21.936  C466.496,226.527,467.685,231.723,467.685,237.188z"/>
<path style="fill:#CBCFD1;" d="M464.368,221.848c-5.829,12.924-18.83,21.917-33.959,21.917c-15.11,0-28.111-8.993-33.959-21.917  c5.848-12.943,18.849-21.936,33.959-21.936C445.538,199.912,458.539,208.905,464.368,221.848z"/>
<path d="M485.345,157.779H143c-4.143,0-7.5,3.357-7.5,7.5s3.357,7.5,7.5,7.5h342.345c6.427,0,11.655,5.229,11.655,11.655v129.884  h-7.659H21.576H15V184.434c0-6.427,5.229-11.655,11.655-11.655H110c4.143,0,7.5-3.357,7.5-7.5s-3.357-7.5-7.5-7.5H26.655  C11.957,157.779,0,169.737,0,184.434v137.384c0,4.143,3.357,7.5,7.5,7.5h6.576v17.403c0,4.143,3.357,7.5,7.5,7.5h248.681  c4.143,0,7.5-3.357,7.5-7.5s-3.357-7.5-7.5-7.5H29.076v-9.903h452.765v9.903H302c-4.143,0-7.5,3.357-7.5,7.5s3.357,7.5,7.5,7.5  h187.341c4.143,0,7.5-3.357,7.5-7.5v-17.403h7.659c4.143,0,7.5-3.357,7.5-7.5V184.434C512,169.737,500.043,157.779,485.345,157.779z  "/>
<path d="M116.941,244.911c0,4.143,3.357,7.5,7.5,7.5h244.71c4.143,0,7.5-3.357,7.5-7.5v-44.999c0-4.143-3.357-7.5-7.5-7.5h-244.71  c-4.143,0-7.5,3.357-7.5,7.5C116.941,199.912,116.941,244.911,116.941,244.911z M131.941,237.411v-7.5h229.71v7.5H131.941z   M361.651,207.412v7.499h-229.71v-7.499H361.651z"/>
<path d="M261.696,289.774c-4.143,0-7.5,3.357-7.5,7.5s3.357,7.5,7.5,7.5h5.211c4.143,0,7.5-3.357,7.5-7.5s-3.357-7.5-7.5-7.5  H261.696z"/>
<path d="M286.701,304.774h5.211c4.143,0,7.5-3.357,7.5-7.5s-3.357-7.5-7.5-7.5h-5.211c-4.143,0-7.5,3.357-7.5,7.5  S282.559,304.774,286.701,304.774z"/>
<path d="M316.918,289.774h-5.211c-4.143,0-7.5,3.357-7.5,7.5s3.357,7.5,7.5,7.5h5.211c4.143,0,7.5-3.357,7.5-7.5  S321.061,289.774,316.918,289.774z"/>
<path d="M336.713,304.774h5.211c4.143,0,7.5-3.357,7.5-7.5s-3.357-7.5-7.5-7.5h-5.211c-4.143,0-7.5,3.357-7.5,7.5  S332.57,304.774,336.713,304.774z"/>
<path d="M361.719,289.774c-4.143,0-7.5,3.357-7.5,7.5s3.357,7.5,7.5,7.5h5.211c4.143,0,7.5-3.357,7.5-7.5s-3.357-7.5-7.5-7.5  H361.719z"/>
<path d="M285.697,275.619c0-4.143-3.357-7.5-7.5-7.5h-15.881c-4.143,0-7.5,3.357-7.5,7.5s3.357,7.5,7.5,7.5h15.881  C282.34,283.119,285.697,279.761,285.697,275.619z"/>
<path d="M331.174,275.619c0-4.143-3.357-7.5-7.5-7.5h-15.881c-4.143,0-7.5,3.357-7.5,7.5s3.357,7.5,7.5,7.5h15.881  C327.816,283.119,331.174,279.761,331.174,275.619z"/>
<path d="M376.651,275.619c0-4.143-3.357-7.5-7.5-7.5H353.27c-4.143,0-7.5,3.357-7.5,7.5s3.357,7.5,7.5,7.5h15.881  C373.294,283.119,376.651,279.761,376.651,275.619z"/>
<path d="M74.256,243.484c-17.069,0-30.956,13.887-30.956,30.956s13.887,30.957,30.956,30.957s30.957-13.888,30.957-30.957  S91.325,243.484,74.256,243.484z M74.256,290.397c-8.798,0-15.956-7.158-15.956-15.957c0-8.798,7.158-15.956,15.956-15.956  c8.799,0,15.957,7.158,15.957,15.956C90.213,283.239,83.055,290.397,74.256,290.397z"/>
<path d="M475.18,237.178c0-24.682-20.08-44.761-44.762-44.761s-44.761,20.079-44.761,44.761s20.079,44.762,44.761,44.762  S475.18,261.86,475.18,237.178z M400.657,237.178c0-13.82,9.47-25.469,22.261-28.802v13.462c0,4.143,3.357,7.5,7.5,7.5  s7.5-3.357,7.5-7.5v-13.462c12.792,3.333,22.262,14.982,22.262,28.802c0,16.411-13.351,29.762-29.762,29.762  C414.008,266.94,400.657,253.589,400.657,237.178z"/>
<path d="M97.717,214.338H50.8c-4.143,0-7.5,3.357-7.5,7.5s3.357,7.5,7.5,7.5h46.917c4.143,0,7.5-3.357,7.5-7.5  S101.859,214.338,97.717,214.338z"/>
<path d="M97.717,192.417H50.8c-4.143,0-7.5,3.357-7.5,7.5s3.357,7.5,7.5,7.5h46.917c4.143,0,7.5-3.357,7.5-7.5  S101.859,192.417,97.717,192.417z"/>
<g>
</g>
<g>
</g>
<g>
</g>
<g>
</g>
<g>
</g>
<g>
</g>
<g>
</g>
<g>
</g>
<g>
</g>
<g>
</g>
<g>
</g>
<g>
</g>
<g>
</g>
<g>
</g>
<g>
</g>
</svg>
